<svg width="50" height="50" viewBox="0 0 50 50" fill="none" xmlns="http://www.w3.org/2000/svg">
<g clip-path="url(#clip0_461_2598)">
<path d="M45.8333 6.25H14.5833C13.1458 6.25 12.0104 6.97917 11.2604 8.08333L0 24.9896L11.2604 41.8958C12.0104 43 13.1458 43.75 14.5833 43.75H45.8333C48.1354 43.75 50 41.8854 50 39.5833V10.4167C50 8.11458 48.1354 6.25 45.8333 6.25ZM39.5833 32.4687L36.6354 35.4167L29.1667 27.9479L21.6979 35.4167L18.75 32.4687L26.2187 25L18.75 17.5312L21.6979 14.5833L29.1667 22.0521L36.6354 14.5833L39.5833 17.5312L32.1146 25L39.5833 32.4687Z" fill="white"/>
</g>
<defs>
<clipPath id="clip0_461_2598">
<rect width="50" height="50" fill="white"/>
</clipPath>
</defs>
</svg>
