<svg width="50" height="50" viewBox="0 0 50 50" fill="none" xmlns="http://www.w3.org/2000/svg">
<path fill-rule="evenodd" clip-rule="evenodd" d="M42.6646 15.788L31.4437 6.51042C27.664 3.38536 22.3359 3.38536 18.5563 6.51042L7.3353 15.788C5.31369 17.4595 4.16663 19.9938 4.16663 22.6381V39.3206C4.16663 42.7957 6.84669 45.8333 10.4166 45.8333H14.5833C18.0351 45.8333 20.8333 43.0351 20.8333 39.5833V32.6766C20.8333 31.2591 21.8842 30.3306 22.9166 30.3306H27.0833C28.1157 30.3306 29.1666 31.2591 29.1666 32.6766V39.5833C29.1666 43.0351 31.9648 45.8333 35.4166 45.8333H39.5833C43.1532 45.8333 45.8333 42.7957 45.8333 39.3206V22.6381C45.8333 19.9938 44.6862 17.4595 42.6646 15.788Z" fill="#44CF6C"/>
</svg>
