<svg width="50" height="50" viewBox="0 0 50 50" fill="none" xmlns="http://www.w3.org/2000/svg">
<path fill-rule="evenodd" clip-rule="evenodd" d="M16.6667 12.5C16.6667 7.89759 20.3976 4.16663 25 4.16663C29.6024 4.16663 33.3333 7.89759 33.3333 12.5V20.8333H29.1667V12.5C29.1667 10.1988 27.3012 8.33329 25 8.33329C22.6988 8.33329 20.8333 10.1988 20.8333 12.5V20.8333H16.6667V12.5Z" fill="black"/>
<path fill-rule="evenodd" clip-rule="evenodd" d="M16.6667 18.75C12.0643 18.75 8.33334 22.481 8.33334 27.0833V37.5C8.33334 42.1024 12.0643 45.8333 16.6667 45.8333H33.3333C37.9357 45.8333 41.6667 42.1024 41.6667 37.5V27.0833C41.6667 22.481 37.9357 18.75 33.3333 18.75H16.6667Z" fill="black"/>
</svg>
