<svg width="50" height="50" viewBox="0 0 50 50" fill="none" xmlns="http://www.w3.org/2000/svg">
<path fill-rule="evenodd" clip-rule="evenodd" d="M4.16666 16.6666C4.16666 12.0642 7.89762 8.33325 12.5 8.33325H37.5C42.1024 8.33325 45.8333 12.0642 45.8333 16.6666V17.7082C45.8333 18.2835 45.367 18.7499 44.7917 18.7499L5.20833 18.7499C4.63303 18.7499 4.16666 18.2835 4.16666 17.7083V16.6666ZM5.20833 22.9166C4.63303 22.9166 4.16666 23.383 4.16666 23.9583V33.3333C4.16666 37.9356 7.89763 41.6666 12.5 41.6666H37.5C42.1024 41.6666 45.8333 37.9356 45.8333 33.3333V23.9583C45.8333 23.383 45.367 22.9166 44.7917 22.9166L5.20833 22.9166ZM27.0833 31.2499C27.0833 30.0993 28.0161 29.1666 29.1667 29.1666H35.4167C36.5673 29.1666 37.5 30.0993 37.5 31.2499C37.5 32.4005 36.5673 33.3333 35.4167 33.3333H29.1667C28.0161 33.3333 27.0833 32.4005 27.0833 31.2499Z" fill="white"/>
</svg>
