<svg width="50" height="50" viewBox="0 0 50 50" fill="none" xmlns="http://www.w3.org/2000/svg">
<path fill-rule="evenodd" clip-rule="evenodd" d="M14.5836 9.92418C16.3482 6.395 19.9549 4.16663 23.9003 4.16663H26.0997C30.0453 4.16663 33.6522 6.39585 35.4167 9.92488L37.28 13.6516C37.7946 14.6807 37.3774 15.9321 36.3483 16.4467C35.3192 16.9612 34.0678 16.5441 33.5532 15.515L31.6899 11.7882C30.6312 9.67083 28.4671 8.33329 26.0997 8.33329H23.9003C21.5327 8.33329 19.369 9.67035 18.3104 11.7876L16.4467 15.515C15.9321 16.5441 14.6807 16.9612 13.6516 16.4467C12.6225 15.9321 12.2054 14.6807 12.7199 13.6516L14.5836 9.92418Z" fill="#828487"/>
<path fill-rule="evenodd" clip-rule="evenodd" d="M13.4567 12.5C8.38548 12.5 4.48996 16.9916 5.20715 22.0118L7.33257 36.8898C8.06568 42.0216 12.4607 45.8333 17.6445 45.8333H32.3563C37.5401 45.8333 41.9352 42.0216 42.6683 36.8898L44.7937 22.0118C45.5109 16.9916 41.6153 12.5 36.5441 12.5H13.4567ZM25 20.8333C26.1506 20.8333 27.0833 21.7661 27.0833 22.9167V27.0833H31.25C32.4006 27.0833 33.3333 28.0161 33.3333 29.1667C33.3333 30.3173 32.4006 31.25 31.25 31.25H27.0833V35.4167C27.0833 36.5673 26.1506 37.5 25 37.5C23.8494 37.5 22.9166 36.5673 22.9166 35.4167V31.25H18.75C17.5994 31.25 16.6666 30.3173 16.6666 29.1667C16.6666 28.0161 17.5994 27.0833 18.75 27.0833H22.9166V22.9167C22.9166 21.7661 23.8494 20.8333 25 20.8333Z" fill="#828487"/>
</svg>
