<svg width="50" height="50" viewBox="0 0 50 50" fill="none" xmlns="http://www.w3.org/2000/svg">
<path fill-rule="evenodd" clip-rule="evenodd" d="M25 5.20829C25 4.633 24.5337 4.16663 23.9584 4.16663H16.6667C12.0643 4.16663 8.33337 7.89759 8.33337 12.5V37.5C8.33337 42.1023 12.0643 45.8333 16.6667 45.8333H33.3334C37.9357 45.8333 41.6667 42.1023 41.6667 37.5V21.875C41.6667 21.2997 41.2003 20.8333 40.625 20.8333H35.4167C29.6637 20.8333 25 16.1696 25 10.4166V5.20829ZM40.0406 16.6666C40.7333 16.6666 41.2311 15.9977 40.8984 15.3902C40.6158 14.8743 40.2595 14.3965 39.8361 13.9731L31.8602 5.99721C31.4369 5.57384 30.959 5.21749 30.4432 4.93497C29.8356 4.60222 29.1667 5.10005 29.1667 5.79277V10.4166C29.1667 13.8684 31.9649 16.6666 35.4167 16.6666H40.0406ZM18.75 18.75C17.5994 18.75 16.6667 19.6827 16.6667 20.8333C16.6667 21.9839 17.5994 22.9166 18.75 22.9166H20.8334C21.984 22.9166 22.9167 21.9839 22.9167 20.8333C22.9167 19.6827 21.984 18.75 20.8334 18.75H18.75ZM16.6667 29.1666C16.6667 28.016 17.5994 27.0833 18.75 27.0833H31.25C32.4006 27.0833 33.3334 28.016 33.3334 29.1666C33.3334 30.3172 32.4006 31.25 31.25 31.25H18.75C17.5994 31.25 16.6667 30.3172 16.6667 29.1666ZM16.6667 37.5C16.6667 36.3494 17.5994 35.4166 18.75 35.4166H31.25C32.4006 35.4166 33.3334 36.3494 33.3334 37.5C33.3334 38.6506 32.4006 39.5833 31.25 39.5833H18.75C17.5994 39.5833 16.6667 38.6506 16.6667 37.5Z" fill="#828487"/>
</svg>
