<svg width="70" height="70" viewBox="0 0 70 70" fill="none" xmlns="http://www.w3.org/2000/svg">
<rect width="70" height="70" rx="10" fill="white"/>
<path d="M55.8316 30.8332H24.1935L37.9492 17.1362C38.7341 16.3522 39.1751 15.2889 39.1751 14.1803C39.1751 13.0716 38.7341 12.0083 37.9492 11.2244C37.1642 10.4404 36.0997 10 34.9896 10C33.8796 10 32.815 10.4404 32.03 11.2244L11.1881 32.0406C10.8086 32.4365 10.5111 32.9034 10.3127 33.4144C9.89577 34.428 9.89577 35.5649 10.3127 36.5785C10.5111 37.0895 10.8086 37.5564 11.1881 37.9523L32.03 58.7685C32.4176 59.1587 32.8786 59.4685 33.3865 59.6798C33.8945 59.8912 34.4393 60 34.9896 60C35.5399 60 36.0847 59.8912 36.5927 59.6798C37.1006 59.4685 37.5617 59.1587 37.9492 58.7685C38.3399 58.3815 38.65 57.921 38.8616 57.4137C39.0732 56.9064 39.1822 56.3622 39.1822 55.8126C39.1822 55.263 39.0732 54.7189 38.8616 54.2115C38.65 53.7042 38.3399 53.2438 37.9492 52.8567L24.1935 39.1597H55.8316C56.9371 39.1597 57.9974 38.7211 58.7791 37.9403C59.5608 37.1595 60 36.1006 60 34.9964C60 33.8923 59.5608 32.8334 58.7791 32.0526C57.9974 31.2718 56.9371 30.8332 55.8316 30.8332Z" fill="black"/>
</svg>
