<svg width="64" height="64" viewBox="0 0 64 64" fill="none" xmlns="http://www.w3.org/2000/svg">
<rect x="2" y="2" width="60.5" height="60.5" rx="19" fill="black"/>
<rect x="2" y="2" width="60.5" height="60.5" rx="19" stroke="black" stroke-width="2"/>
<path fill-rule="evenodd" clip-rule="evenodd" d="M47.875 1C56.5044 1 63.5 7.99555 63.5 16.625V47.875C63.5 56.5044 56.5044 63.5 47.875 63.5H16.625C7.99555 63.5 1 56.5044 1 47.875V16.625C1 7.99555 7.99555 1 16.625 1H47.875ZM34.4597 17.5403C33.2393 16.3199 31.2607 16.3199 30.0403 17.5403L17.5403 30.0403C16.9542 30.6263 16.625 31.4212 16.625 32.25C16.625 33.0788 16.9542 33.8737 17.5403 34.4597L30.0403 46.9597C31.2607 48.1801 33.2393 48.1801 34.4597 46.9597C35.6801 45.7393 35.6801 43.7607 34.4597 42.5403L27.2944 35.375H44.75C46.4759 35.375 47.875 33.9759 47.875 32.25C47.875 30.5241 46.4759 29.125 44.75 29.125H27.2944L34.4597 21.9597C35.6801 20.7393 35.6801 18.7607 34.4597 17.5403Z" fill="white" stroke="#E4E4E4" stroke-linecap="round" stroke-linejoin="round"/>
</svg>
