<svg width="50" height="50" viewBox="0 0 50 50" fill="none" xmlns="http://www.w3.org/2000/svg">
<path fill-rule="evenodd" clip-rule="evenodd" d="M14.5833 4.16663C8.83033 4.16663 4.16663 8.83033 4.16663 14.5833V35.4166C4.16663 41.1696 8.83033 45.8333 14.5833 45.8333H35.4166C41.1696 45.8333 45.8333 41.1696 45.8333 35.4166V14.5833C45.8333 8.83033 41.1696 4.16663 35.4166 4.16663H14.5833ZM33.3333 14.5833C34.4839 14.5833 35.4166 15.516 35.4166 16.6666V33.3333C35.4166 34.4839 34.4839 35.4166 33.3333 35.4166C32.1827 35.4166 31.25 34.4839 31.25 33.3333V16.6666C31.25 15.516 32.1827 14.5833 33.3333 14.5833ZM16.6666 27.0833C17.8172 27.0833 18.75 28.016 18.75 29.1666V33.3333C18.75 34.4839 17.8172 35.4166 16.6666 35.4166C15.516 35.4166 14.5833 34.4839 14.5833 33.3333V29.1666C14.5833 28.016 15.516 27.0833 16.6666 27.0833ZM27.0833 22.9166C27.0833 21.766 26.1506 20.8333 25 20.8333C23.8494 20.8333 22.9166 21.766 22.9166 22.9166V33.3333C22.9166 34.4839 23.8494 35.4166 25 35.4166C26.1506 35.4166 27.0833 34.4839 27.0833 33.3333V22.9166Z" fill="#828487"/>
</svg>
