<svg width="50" height="50" viewBox="0 0 50 50" fill="none" xmlns="http://www.w3.org/2000/svg">
<path d="M28.9355 4.16699C30.4695 4.16719 31.7128 5.41038 31.7129 6.94434C31.7129 7.7113 32.3346 8.33285 33.1016 8.33301H39.583C40.7336 8.33301 41.667 9.2664 41.667 10.417C41.6668 11.5674 40.7335 12.5 39.583 12.5H10.417C9.26651 12.5 8.33318 11.5674 8.33301 10.417C8.33301 9.2664 9.2664 8.33301 10.417 8.33301H16.8984C17.6654 8.33285 18.2871 7.7113 18.2871 6.94434C18.2872 5.41038 19.5305 4.16719 21.0645 4.16699H28.9355Z" fill="#79797B"/>
<path fill-rule="evenodd" clip-rule="evenodd" d="M12.5 16.6667C11.9174 16.6667 11.3614 16.9106 10.9669 17.3394C10.5724 17.7681 10.3754 18.3424 10.4238 18.923L12.0296 38.1921C12.3895 42.5112 16.0001 45.8334 20.3341 45.8334H29.6658C33.9999 45.8334 37.6104 42.5112 37.9703 38.1921L39.5761 18.923C39.6245 18.3424 39.4275 17.7681 39.0331 17.3394C38.6386 16.9106 38.0826 16.6667 37.5 16.6667H12.5Z" fill="#79797B"/>
</svg>
